<mxfile host="app.diagrams.net" agent="Mozilla/5.0 (Windows NT 10.0; Win64; x64) AppleWebKit/537.36 (KHTML, like Gecko) Chrome/134.0.0.0 Safari/537.36" version="28.1.1">
  <diagram name="Page-1" id="2YBvvXClWsGukQMizWep">
    <mxGraphModel dx="1426" dy="743" grid="1" gridSize="10" guides="1" tooltips="1" connect="1" arrows="1" fold="1" page="1" pageScale="1" pageWidth="850" pageHeight="1100" math="0" shadow="0">
      <root>
        <mxCell id="0" />
        <mxCell id="1" parent="0" />
        <mxCell id="EeNdOKzcwhcuOEyCvBdM-79" value="" style="endArrow=none;html=1;rounded=0;dashed=1;" edge="1" parent="1">
          <mxGeometry width="50" height="50" relative="1" as="geometry">
            <mxPoint x="450" y="820" as="sourcePoint" />
            <mxPoint x="450" y="760" as="targetPoint" />
          </mxGeometry>
        </mxCell>
        <mxCell id="EeNdOKzcwhcuOEyCvBdM-35" value="" style="endArrow=none;html=1;rounded=0;dashed=1;" edge="1" parent="1" target="EeNdOKzcwhcuOEyCvBdM-1">
          <mxGeometry width="50" height="50" relative="1" as="geometry">
            <mxPoint x="95" y="450" as="sourcePoint" />
            <mxPoint x="290" y="320" as="targetPoint" />
          </mxGeometry>
        </mxCell>
        <mxCell id="EeNdOKzcwhcuOEyCvBdM-4" style="edgeStyle=elbowEdgeStyle;rounded=0;orthogonalLoop=1;jettySize=auto;html=1;elbow=vertical;curved=0;" edge="1" parent="1">
          <mxGeometry relative="1" as="geometry">
            <mxPoint x="289.5" y="140" as="sourcePoint" />
            <mxPoint x="449.5" y="140" as="targetPoint" />
          </mxGeometry>
        </mxCell>
        <mxCell id="EeNdOKzcwhcuOEyCvBdM-9" value="agregarPais()" style="edgeLabel;html=1;align=center;verticalAlign=middle;resizable=0;points=[];" vertex="1" connectable="0" parent="EeNdOKzcwhcuOEyCvBdM-4">
          <mxGeometry x="0.3063" y="3" relative="1" as="geometry">
            <mxPoint x="-24" y="-7" as="offset" />
          </mxGeometry>
        </mxCell>
        <mxCell id="aM9ryv3xv72pqoxQDRHE-5" value="Interfaz" style="shape=umlLifeline;perimeter=lifelinePerimeter;whiteSpace=wrap;html=1;container=0;dropTarget=0;collapsible=0;recursiveResize=0;outlineConnect=0;portConstraint=eastwest;newEdgeStyle={&quot;edgeStyle&quot;:&quot;elbowEdgeStyle&quot;,&quot;elbow&quot;:&quot;vertical&quot;,&quot;curved&quot;:0,&quot;rounded&quot;:0};" parent="1" vertex="1">
          <mxGeometry x="240" y="50" width="100" height="450" as="geometry" />
        </mxCell>
        <mxCell id="aM9ryv3xv72pqoxQDRHE-6" value="" style="html=1;points=[];perimeter=orthogonalPerimeter;outlineConnect=0;targetShapes=umlLifeline;portConstraint=eastwest;newEdgeStyle={&quot;edgeStyle&quot;:&quot;elbowEdgeStyle&quot;,&quot;elbow&quot;:&quot;vertical&quot;,&quot;curved&quot;:0,&quot;rounded&quot;:0};" parent="aM9ryv3xv72pqoxQDRHE-5" vertex="1">
          <mxGeometry x="45" y="80" width="10" height="340" as="geometry" />
        </mxCell>
        <mxCell id="aM9ryv3xv72pqoxQDRHE-7" value="btnAgregarPais()" style="html=1;verticalAlign=bottom;endArrow=block;edgeStyle=elbowEdgeStyle;elbow=vertical;curved=0;rounded=0;" parent="1" target="aM9ryv3xv72pqoxQDRHE-6" edge="1">
          <mxGeometry x="0.0049" relative="1" as="geometry">
            <mxPoint x="95" y="120" as="sourcePoint" />
            <Array as="points">
              <mxPoint x="180" y="120" />
            </Array>
            <mxPoint as="offset" />
          </mxGeometry>
        </mxCell>
        <mxCell id="aM9ryv3xv72pqoxQDRHE-8" value="" style="html=1;verticalAlign=bottom;endArrow=classic;dashed=1;endSize=8;edgeStyle=elbowEdgeStyle;elbow=vertical;curved=0;rounded=0;startArrow=none;startFill=0;endFill=1;" parent="1" edge="1">
          <mxGeometry relative="1" as="geometry">
            <mxPoint x="105" y="180" as="targetPoint" />
            <Array as="points">
              <mxPoint x="105" y="180" />
              <mxPoint x="185" y="180" />
            </Array>
            <mxPoint x="280" y="180" as="sourcePoint" />
          </mxGeometry>
        </mxCell>
        <mxCell id="EeNdOKzcwhcuOEyCvBdM-1" value="Actor" style="shape=umlActor;verticalLabelPosition=bottom;verticalAlign=top;html=1;outlineConnect=0;" vertex="1" parent="1">
          <mxGeometry x="80" y="30" width="30" height="60" as="geometry" />
        </mxCell>
        <mxCell id="EeNdOKzcwhcuOEyCvBdM-2" value="Controlador" style="shape=umlLifeline;perimeter=lifelinePerimeter;whiteSpace=wrap;html=1;container=0;dropTarget=0;collapsible=0;recursiveResize=0;outlineConnect=0;portConstraint=eastwest;newEdgeStyle={&quot;edgeStyle&quot;:&quot;elbowEdgeStyle&quot;,&quot;elbow&quot;:&quot;vertical&quot;,&quot;curved&quot;:0,&quot;rounded&quot;:0};" vertex="1" parent="1">
          <mxGeometry x="400" y="50" width="100" height="450" as="geometry" />
        </mxCell>
        <mxCell id="EeNdOKzcwhcuOEyCvBdM-3" value="" style="html=1;points=[];perimeter=orthogonalPerimeter;outlineConnect=0;targetShapes=umlLifeline;portConstraint=eastwest;newEdgeStyle={&quot;edgeStyle&quot;:&quot;elbowEdgeStyle&quot;,&quot;elbow&quot;:&quot;vertical&quot;,&quot;curved&quot;:0,&quot;rounded&quot;:0};" vertex="1" parent="EeNdOKzcwhcuOEyCvBdM-2">
          <mxGeometry x="45" y="80" width="10" height="340" as="geometry" />
        </mxCell>
        <mxCell id="EeNdOKzcwhcuOEyCvBdM-16" style="edgeStyle=orthogonalEdgeStyle;rounded=0;orthogonalLoop=1;jettySize=auto;html=1;" edge="1" parent="1">
          <mxGeometry relative="1" as="geometry">
            <mxPoint x="100" y="220" as="sourcePoint" />
            <mxPoint x="289.5" y="220" as="targetPoint" />
          </mxGeometry>
        </mxCell>
        <mxCell id="EeNdOKzcwhcuOEyCvBdM-17" value="btnModificarPais()" style="edgeLabel;html=1;align=center;verticalAlign=middle;resizable=0;points=[];" vertex="1" connectable="0" parent="EeNdOKzcwhcuOEyCvBdM-16">
          <mxGeometry x="0.1504" y="2" relative="1" as="geometry">
            <mxPoint x="-19" as="offset" />
          </mxGeometry>
        </mxCell>
        <mxCell id="EeNdOKzcwhcuOEyCvBdM-5" value="" style="rounded=0;whiteSpace=wrap;html=1;" vertex="1" parent="1">
          <mxGeometry x="90" y="110" width="10" height="280" as="geometry" />
        </mxCell>
        <mxCell id="EeNdOKzcwhcuOEyCvBdM-6" value="Service" style="shape=umlLifeline;perimeter=lifelinePerimeter;whiteSpace=wrap;html=1;container=0;dropTarget=0;collapsible=0;recursiveResize=0;outlineConnect=0;portConstraint=eastwest;newEdgeStyle={&quot;edgeStyle&quot;:&quot;elbowEdgeStyle&quot;,&quot;elbow&quot;:&quot;vertical&quot;,&quot;curved&quot;:0,&quot;rounded&quot;:0};" vertex="1" parent="1">
          <mxGeometry x="550" y="50" width="100" height="420" as="geometry" />
        </mxCell>
        <mxCell id="EeNdOKzcwhcuOEyCvBdM-7" value="" style="html=1;points=[];perimeter=orthogonalPerimeter;outlineConnect=0;targetShapes=umlLifeline;portConstraint=eastwest;newEdgeStyle={&quot;edgeStyle&quot;:&quot;elbowEdgeStyle&quot;,&quot;elbow&quot;:&quot;vertical&quot;,&quot;curved&quot;:0,&quot;rounded&quot;:0};" vertex="1" parent="EeNdOKzcwhcuOEyCvBdM-6">
          <mxGeometry x="45" y="80" width="10" height="260" as="geometry" />
        </mxCell>
        <mxCell id="EeNdOKzcwhcuOEyCvBdM-8" style="edgeStyle=elbowEdgeStyle;rounded=0;orthogonalLoop=1;jettySize=auto;html=1;elbow=vertical;curved=0;" edge="1" parent="1">
          <mxGeometry relative="1" as="geometry">
            <mxPoint x="455" y="147" as="sourcePoint" />
            <mxPoint x="599.5" y="147" as="targetPoint" />
          </mxGeometry>
        </mxCell>
        <mxCell id="EeNdOKzcwhcuOEyCvBdM-11" value="" style="endArrow=classic;html=1;rounded=0;startArrow=none;startFill=0;" edge="1" parent="1">
          <mxGeometry width="50" height="50" relative="1" as="geometry">
            <mxPoint x="755" y="187.5" as="sourcePoint" />
            <mxPoint x="860" y="187.5" as="targetPoint" />
          </mxGeometry>
        </mxCell>
        <mxCell id="EeNdOKzcwhcuOEyCvBdM-12" value="" style="shape=datastore;whiteSpace=wrap;html=1;" vertex="1" parent="1">
          <mxGeometry x="860" y="158" width="60" height="60" as="geometry" />
        </mxCell>
        <mxCell id="EeNdOKzcwhcuOEyCvBdM-13" style="edgeStyle=elbowEdgeStyle;rounded=0;orthogonalLoop=1;jettySize=auto;html=1;elbow=vertical;curved=0;dashed=1;" edge="1" parent="1">
          <mxGeometry relative="1" as="geometry">
            <mxPoint x="590" y="165" as="sourcePoint" />
            <mxPoint x="450" y="165" as="targetPoint" />
            <Array as="points">
              <mxPoint x="535" y="165" />
            </Array>
          </mxGeometry>
        </mxCell>
        <mxCell id="EeNdOKzcwhcuOEyCvBdM-15" style="edgeStyle=elbowEdgeStyle;rounded=0;orthogonalLoop=1;jettySize=auto;html=1;elbow=vertical;curved=0;dashed=1;entryX=0.5;entryY=0.706;entryDx=0;entryDy=0;entryPerimeter=0;" edge="1" parent="1">
          <mxGeometry relative="1" as="geometry">
            <mxPoint x="445" y="170" as="sourcePoint" />
            <mxPoint x="290" y="170.01999999999998" as="targetPoint" />
          </mxGeometry>
        </mxCell>
        <mxCell id="EeNdOKzcwhcuOEyCvBdM-18" style="edgeStyle=elbowEdgeStyle;rounded=0;orthogonalLoop=1;jettySize=auto;html=1;elbow=vertical;curved=0;" edge="1" parent="1">
          <mxGeometry relative="1" as="geometry">
            <mxPoint x="290" y="230" as="sourcePoint" />
            <mxPoint x="444.5" y="230" as="targetPoint" />
          </mxGeometry>
        </mxCell>
        <mxCell id="EeNdOKzcwhcuOEyCvBdM-19" style="edgeStyle=elbowEdgeStyle;rounded=0;orthogonalLoop=1;jettySize=auto;html=1;elbow=vertical;curved=0;" edge="1" parent="1">
          <mxGeometry relative="1" as="geometry">
            <mxPoint x="605" y="252" as="sourcePoint" />
            <mxPoint x="749.5" y="252" as="targetPoint" />
          </mxGeometry>
        </mxCell>
        <mxCell id="EeNdOKzcwhcuOEyCvBdM-21" style="edgeStyle=elbowEdgeStyle;rounded=0;orthogonalLoop=1;jettySize=auto;html=1;elbow=vertical;curved=0;dashed=1;" edge="1" parent="1" target="aM9ryv3xv72pqoxQDRHE-6">
          <mxGeometry relative="1" as="geometry">
            <mxPoint x="440" y="270" as="sourcePoint" />
            <mxPoint x="300" y="270" as="targetPoint" />
            <Array as="points">
              <mxPoint x="385" y="270" />
            </Array>
          </mxGeometry>
        </mxCell>
        <mxCell id="EeNdOKzcwhcuOEyCvBdM-22" style="edgeStyle=elbowEdgeStyle;rounded=0;orthogonalLoop=1;jettySize=auto;html=1;elbow=vertical;curved=0;dashed=1;" edge="1" parent="1">
          <mxGeometry relative="1" as="geometry">
            <mxPoint x="745" y="259" as="sourcePoint" />
            <mxPoint x="605" y="259" as="targetPoint" />
            <Array as="points">
              <mxPoint x="690" y="259" />
            </Array>
          </mxGeometry>
        </mxCell>
        <mxCell id="EeNdOKzcwhcuOEyCvBdM-23" style="edgeStyle=elbowEdgeStyle;rounded=0;orthogonalLoop=1;jettySize=auto;html=1;elbow=vertical;curved=0;dashed=1;" edge="1" parent="1" source="aM9ryv3xv72pqoxQDRHE-6">
          <mxGeometry relative="1" as="geometry">
            <mxPoint x="280" y="280" as="sourcePoint" />
            <mxPoint x="100" y="280" as="targetPoint" />
            <Array as="points">
              <mxPoint x="225" y="280" />
            </Array>
          </mxGeometry>
        </mxCell>
        <mxCell id="EeNdOKzcwhcuOEyCvBdM-24" style="edgeStyle=orthogonalEdgeStyle;rounded=0;orthogonalLoop=1;jettySize=auto;html=1;" edge="1" parent="1">
          <mxGeometry relative="1" as="geometry">
            <mxPoint x="100" y="310" as="sourcePoint" />
            <mxPoint x="289.5" y="310" as="targetPoint" />
          </mxGeometry>
        </mxCell>
        <mxCell id="EeNdOKzcwhcuOEyCvBdM-25" value="btnEliminarPais()" style="edgeLabel;html=1;align=center;verticalAlign=middle;resizable=0;points=[];" vertex="1" connectable="0" parent="EeNdOKzcwhcuOEyCvBdM-24">
          <mxGeometry x="0.1504" y="2" relative="1" as="geometry">
            <mxPoint x="-19" as="offset" />
          </mxGeometry>
        </mxCell>
        <mxCell id="EeNdOKzcwhcuOEyCvBdM-26" style="edgeStyle=elbowEdgeStyle;rounded=0;orthogonalLoop=1;jettySize=auto;html=1;elbow=vertical;curved=0;" edge="1" parent="1">
          <mxGeometry relative="1" as="geometry">
            <mxPoint x="290" y="320" as="sourcePoint" />
            <mxPoint x="444.5" y="320" as="targetPoint" />
          </mxGeometry>
        </mxCell>
        <mxCell id="EeNdOKzcwhcuOEyCvBdM-27" style="edgeStyle=elbowEdgeStyle;rounded=0;orthogonalLoop=1;jettySize=auto;html=1;elbow=vertical;curved=0;" edge="1" parent="1">
          <mxGeometry relative="1" as="geometry">
            <mxPoint x="605.25" y="332" as="sourcePoint" />
            <mxPoint x="749.75" y="332" as="targetPoint" />
          </mxGeometry>
        </mxCell>
        <mxCell id="EeNdOKzcwhcuOEyCvBdM-28" style="edgeStyle=elbowEdgeStyle;rounded=0;orthogonalLoop=1;jettySize=auto;html=1;elbow=vertical;curved=0;dashed=1;" edge="1" parent="1">
          <mxGeometry relative="1" as="geometry">
            <mxPoint x="440" y="360" as="sourcePoint" />
            <mxPoint x="295" y="360" as="targetPoint" />
            <Array as="points">
              <mxPoint x="385" y="360" />
            </Array>
          </mxGeometry>
        </mxCell>
        <mxCell id="EeNdOKzcwhcuOEyCvBdM-29" style="edgeStyle=elbowEdgeStyle;rounded=0;orthogonalLoop=1;jettySize=auto;html=1;elbow=vertical;curved=0;dashed=1;" edge="1" parent="1">
          <mxGeometry relative="1" as="geometry">
            <mxPoint x="745" y="340" as="sourcePoint" />
            <mxPoint x="605" y="340" as="targetPoint" />
            <Array as="points">
              <mxPoint x="690" y="340" />
            </Array>
          </mxGeometry>
        </mxCell>
        <mxCell id="EeNdOKzcwhcuOEyCvBdM-30" style="edgeStyle=elbowEdgeStyle;rounded=0;orthogonalLoop=1;jettySize=auto;html=1;elbow=vertical;curved=0;dashed=1;" edge="1" parent="1">
          <mxGeometry relative="1" as="geometry">
            <mxPoint x="285" y="370" as="sourcePoint" />
            <mxPoint x="100" y="370" as="targetPoint" />
            <Array as="points">
              <mxPoint x="225" y="370" />
            </Array>
          </mxGeometry>
        </mxCell>
        <mxCell id="EeNdOKzcwhcuOEyCvBdM-36" value="crearPais(nombre)" style="text;html=1;align=center;verticalAlign=middle;resizable=0;points=[];autosize=1;strokeColor=none;fillColor=none;" vertex="1" parent="1">
          <mxGeometry x="460" y="122" width="120" height="30" as="geometry" />
        </mxCell>
        <mxCell id="EeNdOKzcwhcuOEyCvBdM-37" value="modificarPais()" style="text;html=1;align=center;verticalAlign=middle;resizable=0;points=[];autosize=1;strokeColor=none;fillColor=none;" vertex="1" parent="1">
          <mxGeometry x="320" y="208" width="100" height="30" as="geometry" />
        </mxCell>
        <mxCell id="EeNdOKzcwhcuOEyCvBdM-38" value="verificarMPais()" style="text;html=1;align=center;verticalAlign=middle;resizable=0;points=[];autosize=1;strokeColor=none;fillColor=none;" vertex="1" parent="1">
          <mxGeometry x="620" y="230" width="110" height="30" as="geometry" />
        </mxCell>
        <mxCell id="EeNdOKzcwhcuOEyCvBdM-39" value="eliminarPais()" style="text;html=1;align=center;verticalAlign=middle;resizable=0;points=[];autosize=1;strokeColor=none;fillColor=none;" vertex="1" parent="1">
          <mxGeometry x="310" y="298" width="100" height="30" as="geometry" />
        </mxCell>
        <mxCell id="EeNdOKzcwhcuOEyCvBdM-40" value="verificarEPais()" style="text;html=1;align=center;verticalAlign=middle;resizable=0;points=[];autosize=1;strokeColor=none;fillColor=none;" vertex="1" parent="1">
          <mxGeometry x="625.25" y="310" width="100" height="30" as="geometry" />
        </mxCell>
        <mxCell id="EeNdOKzcwhcuOEyCvBdM-41" value="Modelo" style="shape=umlLifeline;perimeter=lifelinePerimeter;whiteSpace=wrap;html=1;container=0;dropTarget=0;collapsible=0;recursiveResize=0;outlineConnect=0;portConstraint=eastwest;newEdgeStyle={&quot;edgeStyle&quot;:&quot;elbowEdgeStyle&quot;,&quot;elbow&quot;:&quot;vertical&quot;,&quot;curved&quot;:0,&quot;rounded&quot;:0};" vertex="1" parent="1">
          <mxGeometry x="700" y="50" width="100" height="420" as="geometry" />
        </mxCell>
        <mxCell id="EeNdOKzcwhcuOEyCvBdM-42" value="" style="html=1;points=[];perimeter=orthogonalPerimeter;outlineConnect=0;targetShapes=umlLifeline;portConstraint=eastwest;newEdgeStyle={&quot;edgeStyle&quot;:&quot;elbowEdgeStyle&quot;,&quot;elbow&quot;:&quot;vertical&quot;,&quot;curved&quot;:0,&quot;rounded&quot;:0};" vertex="1" parent="EeNdOKzcwhcuOEyCvBdM-41">
          <mxGeometry x="45" y="80" width="10" height="260" as="geometry" />
        </mxCell>
        <mxCell id="EeNdOKzcwhcuOEyCvBdM-43" style="edgeStyle=elbowEdgeStyle;rounded=0;orthogonalLoop=1;jettySize=auto;html=1;elbow=vertical;curved=0;" edge="1" parent="1">
          <mxGeometry relative="1" as="geometry">
            <mxPoint x="600" y="152" as="sourcePoint" />
            <mxPoint x="744.5" y="152" as="targetPoint" />
          </mxGeometry>
        </mxCell>
        <mxCell id="EeNdOKzcwhcuOEyCvBdM-44" style="edgeStyle=elbowEdgeStyle;rounded=0;orthogonalLoop=1;jettySize=auto;html=1;elbow=vertical;curved=0;dashed=1;" edge="1" parent="1">
          <mxGeometry relative="1" as="geometry">
            <mxPoint x="740" y="158" as="sourcePoint" />
            <mxPoint x="600" y="158" as="targetPoint" />
            <Array as="points">
              <mxPoint x="685" y="158" />
            </Array>
          </mxGeometry>
        </mxCell>
        <mxCell id="EeNdOKzcwhcuOEyCvBdM-45" value="verificarAPais(nombre)" style="text;html=1;align=center;verticalAlign=middle;resizable=0;points=[];autosize=1;strokeColor=none;fillColor=none;" vertex="1" parent="1">
          <mxGeometry x="605" y="128" width="150" height="30" as="geometry" />
        </mxCell>
        <mxCell id="EeNdOKzcwhcuOEyCvBdM-46" style="edgeStyle=elbowEdgeStyle;rounded=0;orthogonalLoop=1;jettySize=auto;html=1;elbow=vertical;curved=0;" edge="1" parent="1">
          <mxGeometry relative="1" as="geometry">
            <mxPoint x="450" y="240" as="sourcePoint" />
            <mxPoint x="594.5" y="240" as="targetPoint" />
          </mxGeometry>
        </mxCell>
        <mxCell id="EeNdOKzcwhcuOEyCvBdM-47" style="edgeStyle=elbowEdgeStyle;rounded=0;orthogonalLoop=1;jettySize=auto;html=1;elbow=vertical;curved=0;dashed=1;" edge="1" parent="1">
          <mxGeometry relative="1" as="geometry">
            <mxPoint x="590" y="260" as="sourcePoint" />
            <mxPoint x="450" y="260" as="targetPoint" />
            <Array as="points">
              <mxPoint x="535" y="260" />
            </Array>
          </mxGeometry>
        </mxCell>
        <mxCell id="EeNdOKzcwhcuOEyCvBdM-48" value="modificarPais(nombre)" style="text;html=1;align=center;verticalAlign=middle;resizable=0;points=[];autosize=1;strokeColor=none;fillColor=none;" vertex="1" parent="1">
          <mxGeometry x="450" y="218" width="140" height="30" as="geometry" />
        </mxCell>
        <mxCell id="EeNdOKzcwhcuOEyCvBdM-49" style="edgeStyle=elbowEdgeStyle;rounded=0;orthogonalLoop=1;jettySize=auto;html=1;elbow=vertical;curved=0;" edge="1" parent="1">
          <mxGeometry relative="1" as="geometry">
            <mxPoint x="450" y="329" as="sourcePoint" />
            <mxPoint x="594.5" y="329" as="targetPoint" />
          </mxGeometry>
        </mxCell>
        <mxCell id="EeNdOKzcwhcuOEyCvBdM-50" style="edgeStyle=elbowEdgeStyle;rounded=0;orthogonalLoop=1;jettySize=auto;html=1;elbow=vertical;curved=0;dashed=1;" edge="1" parent="1">
          <mxGeometry relative="1" as="geometry">
            <mxPoint x="590" y="349" as="sourcePoint" />
            <mxPoint x="450" y="349" as="targetPoint" />
            <Array as="points">
              <mxPoint x="535" y="349" />
            </Array>
          </mxGeometry>
        </mxCell>
        <mxCell id="EeNdOKzcwhcuOEyCvBdM-51" value="eliminarPais(nombre)" style="text;html=1;align=center;verticalAlign=middle;resizable=0;points=[];autosize=1;strokeColor=none;fillColor=none;" vertex="1" parent="1">
          <mxGeometry x="445" y="307" width="140" height="30" as="geometry" />
        </mxCell>
        <mxCell id="EeNdOKzcwhcuOEyCvBdM-53" style="edgeStyle=elbowEdgeStyle;rounded=0;orthogonalLoop=1;jettySize=auto;html=1;elbow=vertical;curved=0;dashed=1;" edge="1" parent="1">
          <mxGeometry relative="1" as="geometry">
            <mxPoint x="860" y="200" as="sourcePoint" />
            <mxPoint x="760" y="200" as="targetPoint" />
            <Array as="points">
              <mxPoint x="805" y="200" />
            </Array>
          </mxGeometry>
        </mxCell>
        <mxCell id="EeNdOKzcwhcuOEyCvBdM-55" value="Service" style="shape=umlLifeline;perimeter=lifelinePerimeter;whiteSpace=wrap;html=1;container=0;dropTarget=0;collapsible=0;recursiveResize=0;outlineConnect=0;portConstraint=eastwest;newEdgeStyle={&quot;edgeStyle&quot;:&quot;elbowEdgeStyle&quot;,&quot;elbow&quot;:&quot;vertical&quot;,&quot;curved&quot;:0,&quot;rounded&quot;:0};" vertex="1" parent="1">
          <mxGeometry x="75" y="580" width="100" height="550" as="geometry" />
        </mxCell>
        <mxCell id="EeNdOKzcwhcuOEyCvBdM-56" value="" style="html=1;points=[];perimeter=orthogonalPerimeter;outlineConnect=0;targetShapes=umlLifeline;portConstraint=eastwest;newEdgeStyle={&quot;edgeStyle&quot;:&quot;elbowEdgeStyle&quot;,&quot;elbow&quot;:&quot;vertical&quot;,&quot;curved&quot;:0,&quot;rounded&quot;:0};" vertex="1" parent="EeNdOKzcwhcuOEyCvBdM-55">
          <mxGeometry x="45" y="80" width="10" height="430" as="geometry" />
        </mxCell>
        <mxCell id="EeNdOKzcwhcuOEyCvBdM-58" value="" style="shape=datastore;whiteSpace=wrap;html=1;" vertex="1" parent="1">
          <mxGeometry x="610" y="670" width="60" height="60" as="geometry" />
        </mxCell>
        <mxCell id="EeNdOKzcwhcuOEyCvBdM-65" value="Modelo" style="shape=umlLifeline;perimeter=lifelinePerimeter;whiteSpace=wrap;html=1;container=0;dropTarget=0;collapsible=0;recursiveResize=0;outlineConnect=0;portConstraint=eastwest;newEdgeStyle={&quot;edgeStyle&quot;:&quot;elbowEdgeStyle&quot;,&quot;elbow&quot;:&quot;vertical&quot;,&quot;curved&quot;:0,&quot;rounded&quot;:0};" vertex="1" parent="1">
          <mxGeometry x="225" y="580" width="100" height="650" as="geometry" />
        </mxCell>
        <mxCell id="EeNdOKzcwhcuOEyCvBdM-66" value="" style="html=1;points=[];perimeter=orthogonalPerimeter;outlineConnect=0;targetShapes=umlLifeline;portConstraint=eastwest;newEdgeStyle={&quot;edgeStyle&quot;:&quot;elbowEdgeStyle&quot;,&quot;elbow&quot;:&quot;vertical&quot;,&quot;curved&quot;:0,&quot;rounded&quot;:0};" vertex="1" parent="EeNdOKzcwhcuOEyCvBdM-65">
          <mxGeometry x="45" y="80" width="10" height="550" as="geometry" />
        </mxCell>
        <mxCell id="EeNdOKzcwhcuOEyCvBdM-67" style="edgeStyle=elbowEdgeStyle;rounded=0;orthogonalLoop=1;jettySize=auto;html=1;elbow=vertical;curved=0;" edge="1" parent="1">
          <mxGeometry relative="1" as="geometry">
            <mxPoint x="125" y="682" as="sourcePoint" />
            <mxPoint x="269.5" y="682" as="targetPoint" />
          </mxGeometry>
        </mxCell>
        <mxCell id="EeNdOKzcwhcuOEyCvBdM-68" style="edgeStyle=elbowEdgeStyle;rounded=0;orthogonalLoop=1;jettySize=auto;html=1;elbow=vertical;curved=0;dashed=1;" edge="1" parent="1">
          <mxGeometry relative="1" as="geometry">
            <mxPoint x="265" y="688" as="sourcePoint" />
            <mxPoint x="125" y="688" as="targetPoint" />
            <Array as="points">
              <mxPoint x="210" y="688" />
            </Array>
          </mxGeometry>
        </mxCell>
        <mxCell id="EeNdOKzcwhcuOEyCvBdM-69" value="verificarAPais(nombre)" style="text;html=1;align=center;verticalAlign=middle;resizable=0;points=[];autosize=1;strokeColor=none;fillColor=none;" vertex="1" parent="1">
          <mxGeometry x="130" y="658" width="150" height="30" as="geometry" />
        </mxCell>
        <mxCell id="EeNdOKzcwhcuOEyCvBdM-71" style="edgeStyle=elbowEdgeStyle;rounded=0;orthogonalLoop=1;jettySize=auto;html=1;elbow=vertical;curved=0;" edge="1" parent="1">
          <mxGeometry relative="1" as="geometry">
            <mxPoint x="280" y="694" as="sourcePoint" />
            <mxPoint x="610" y="694" as="targetPoint" />
          </mxGeometry>
        </mxCell>
        <mxCell id="EeNdOKzcwhcuOEyCvBdM-72" style="edgeStyle=elbowEdgeStyle;rounded=0;orthogonalLoop=1;jettySize=auto;html=1;elbow=vertical;curved=0;dashed=1;exitX=0;exitY=0.5;exitDx=0;exitDy=0;" edge="1" parent="1">
          <mxGeometry relative="1" as="geometry">
            <mxPoint x="610" y="710" as="sourcePoint" />
            <mxPoint x="280" y="710" as="targetPoint" />
            <Array as="points">
              <mxPoint x="365" y="710" />
            </Array>
          </mxGeometry>
        </mxCell>
        <mxCell id="EeNdOKzcwhcuOEyCvBdM-73" value="buscarAPais(nombre)" style="text;html=1;align=center;verticalAlign=middle;resizable=0;points=[];autosize=1;strokeColor=none;fillColor=none;" vertex="1" parent="1">
          <mxGeometry x="290" y="658" width="140" height="30" as="geometry" />
        </mxCell>
        <mxCell id="EeNdOKzcwhcuOEyCvBdM-74" value="none" style="text;html=1;align=center;verticalAlign=middle;resizable=0;points=[];autosize=1;strokeColor=none;fillColor=none;" vertex="1" parent="1">
          <mxGeometry x="410" y="700" width="50" height="30" as="geometry" />
        </mxCell>
        <mxCell id="EeNdOKzcwhcuOEyCvBdM-75" style="edgeStyle=elbowEdgeStyle;rounded=0;orthogonalLoop=1;jettySize=auto;html=1;elbow=vertical;curved=0;" edge="1" parent="1">
          <mxGeometry relative="1" as="geometry">
            <mxPoint x="280" y="753" as="sourcePoint" />
            <mxPoint x="424.5" y="753" as="targetPoint" />
          </mxGeometry>
        </mxCell>
        <mxCell id="EeNdOKzcwhcuOEyCvBdM-77" value="newPais()" style="text;html=1;align=center;verticalAlign=middle;resizable=0;points=[];autosize=1;strokeColor=none;fillColor=none;" vertex="1" parent="1">
          <mxGeometry x="315" y="730" width="80" height="30" as="geometry" />
        </mxCell>
        <mxCell id="EeNdOKzcwhcuOEyCvBdM-78" value="Pais" style="rounded=0;whiteSpace=wrap;html=1;" vertex="1" parent="1">
          <mxGeometry x="425" y="745" width="50" height="25" as="geometry" />
        </mxCell>
        <mxCell id="EeNdOKzcwhcuOEyCvBdM-80" style="edgeStyle=elbowEdgeStyle;rounded=0;orthogonalLoop=1;jettySize=auto;html=1;elbow=vertical;curved=0;" edge="1" parent="1">
          <mxGeometry relative="1" as="geometry">
            <mxPoint x="281" y="798" as="sourcePoint" />
            <mxPoint x="450" y="798" as="targetPoint" />
          </mxGeometry>
        </mxCell>
        <mxCell id="EeNdOKzcwhcuOEyCvBdM-81" value="setters()" style="text;html=1;align=center;verticalAlign=middle;resizable=0;points=[];autosize=1;strokeColor=none;fillColor=none;" vertex="1" parent="1">
          <mxGeometry x="321" y="775" width="70" height="30" as="geometry" />
        </mxCell>
        <mxCell id="EeNdOKzcwhcuOEyCvBdM-82" value="" style="shape=datastore;whiteSpace=wrap;html=1;" vertex="1" parent="1">
          <mxGeometry x="610" y="825" width="60" height="60" as="geometry" />
        </mxCell>
        <mxCell id="EeNdOKzcwhcuOEyCvBdM-83" value="" style="endArrow=classic;html=1;rounded=0;entryX=0;entryY=0.5;entryDx=0;entryDy=0;" edge="1" parent="1" target="EeNdOKzcwhcuOEyCvBdM-82">
          <mxGeometry width="50" height="50" relative="1" as="geometry">
            <mxPoint x="280" y="855" as="sourcePoint" />
            <mxPoint x="330" y="805" as="targetPoint" />
          </mxGeometry>
        </mxCell>
        <mxCell id="EeNdOKzcwhcuOEyCvBdM-84" value="guardarPais()" style="text;html=1;align=center;verticalAlign=middle;resizable=0;points=[];autosize=1;strokeColor=none;fillColor=none;" vertex="1" parent="1">
          <mxGeometry x="300" y="830" width="100" height="30" as="geometry" />
        </mxCell>
        <mxCell id="EeNdOKzcwhcuOEyCvBdM-85" style="edgeStyle=elbowEdgeStyle;rounded=0;orthogonalLoop=1;jettySize=auto;html=1;elbow=vertical;curved=0;" edge="1" parent="1">
          <mxGeometry relative="1" as="geometry">
            <mxPoint x="130" y="912" as="sourcePoint" />
            <mxPoint x="274.5" y="912" as="targetPoint" />
          </mxGeometry>
        </mxCell>
        <mxCell id="EeNdOKzcwhcuOEyCvBdM-86" style="edgeStyle=elbowEdgeStyle;rounded=0;orthogonalLoop=1;jettySize=auto;html=1;elbow=vertical;curved=0;dashed=1;" edge="1" parent="1">
          <mxGeometry relative="1" as="geometry">
            <mxPoint x="270" y="919" as="sourcePoint" />
            <mxPoint x="130" y="919" as="targetPoint" />
            <Array as="points">
              <mxPoint x="215" y="919" />
            </Array>
          </mxGeometry>
        </mxCell>
        <mxCell id="EeNdOKzcwhcuOEyCvBdM-87" style="edgeStyle=elbowEdgeStyle;rounded=0;orthogonalLoop=1;jettySize=auto;html=1;elbow=vertical;curved=0;" edge="1" parent="1">
          <mxGeometry relative="1" as="geometry">
            <mxPoint x="127.88" y="1050" as="sourcePoint" />
            <mxPoint x="272.38" y="1050" as="targetPoint" />
          </mxGeometry>
        </mxCell>
        <mxCell id="EeNdOKzcwhcuOEyCvBdM-88" style="edgeStyle=elbowEdgeStyle;rounded=0;orthogonalLoop=1;jettySize=auto;html=1;elbow=vertical;curved=0;dashed=1;" edge="1" parent="1">
          <mxGeometry relative="1" as="geometry">
            <mxPoint x="267.63" y="1058" as="sourcePoint" />
            <mxPoint x="127.63" y="1058" as="targetPoint" />
            <Array as="points">
              <mxPoint x="212.63" y="1058" />
            </Array>
          </mxGeometry>
        </mxCell>
        <mxCell id="EeNdOKzcwhcuOEyCvBdM-89" value="verificarMPais()" style="text;html=1;align=center;verticalAlign=middle;resizable=0;points=[];autosize=1;strokeColor=none;fillColor=none;" vertex="1" parent="1">
          <mxGeometry x="145" y="890" width="110" height="30" as="geometry" />
        </mxCell>
        <mxCell id="EeNdOKzcwhcuOEyCvBdM-90" value="verificarEPais()" style="text;html=1;align=center;verticalAlign=middle;resizable=0;points=[];autosize=1;strokeColor=none;fillColor=none;" vertex="1" parent="1">
          <mxGeometry x="147.88" y="1028" width="100" height="30" as="geometry" />
        </mxCell>
        <mxCell id="EeNdOKzcwhcuOEyCvBdM-92" value="" style="shape=datastore;whiteSpace=wrap;html=1;" vertex="1" parent="1">
          <mxGeometry x="610" y="902" width="60" height="60" as="geometry" />
        </mxCell>
        <mxCell id="EeNdOKzcwhcuOEyCvBdM-93" style="edgeStyle=elbowEdgeStyle;rounded=0;orthogonalLoop=1;jettySize=auto;html=1;elbow=vertical;curved=0;" edge="1" parent="1">
          <mxGeometry relative="1" as="geometry">
            <mxPoint x="280" y="926" as="sourcePoint" />
            <mxPoint x="610" y="926" as="targetPoint" />
          </mxGeometry>
        </mxCell>
        <mxCell id="EeNdOKzcwhcuOEyCvBdM-94" style="edgeStyle=elbowEdgeStyle;rounded=0;orthogonalLoop=1;jettySize=auto;html=1;elbow=vertical;curved=0;dashed=1;exitX=0;exitY=0.5;exitDx=0;exitDy=0;" edge="1" parent="1">
          <mxGeometry relative="1" as="geometry">
            <mxPoint x="610" y="942" as="sourcePoint" />
            <mxPoint x="280" y="942" as="targetPoint" />
            <Array as="points">
              <mxPoint x="365" y="942" />
            </Array>
          </mxGeometry>
        </mxCell>
        <mxCell id="EeNdOKzcwhcuOEyCvBdM-95" value="buscarPais(nombre)" style="text;html=1;align=center;verticalAlign=middle;resizable=0;points=[];autosize=1;strokeColor=none;fillColor=none;" vertex="1" parent="1">
          <mxGeometry x="305" y="900" width="130" height="30" as="geometry" />
        </mxCell>
        <mxCell id="EeNdOKzcwhcuOEyCvBdM-96" value="ObjPais" style="text;html=1;align=center;verticalAlign=middle;resizable=0;points=[];autosize=1;strokeColor=none;fillColor=none;" vertex="1" parent="1">
          <mxGeometry x="400" y="932" width="70" height="30" as="geometry" />
        </mxCell>
        <mxCell id="EeNdOKzcwhcuOEyCvBdM-97" style="edgeStyle=elbowEdgeStyle;rounded=0;orthogonalLoop=1;jettySize=auto;html=1;elbow=vertical;curved=0;" edge="1" parent="1">
          <mxGeometry relative="1" as="geometry">
            <mxPoint x="280" y="985" as="sourcePoint" />
            <mxPoint x="424.5" y="985" as="targetPoint" />
          </mxGeometry>
        </mxCell>
        <mxCell id="EeNdOKzcwhcuOEyCvBdM-98" value="setNombre()" style="text;html=1;align=center;verticalAlign=middle;resizable=0;points=[];autosize=1;strokeColor=none;fillColor=none;" vertex="1" parent="1">
          <mxGeometry x="310" y="962" width="90" height="30" as="geometry" />
        </mxCell>
        <mxCell id="EeNdOKzcwhcuOEyCvBdM-99" value="Pais" style="rounded=0;whiteSpace=wrap;html=1;" vertex="1" parent="1">
          <mxGeometry x="425" y="977" width="50" height="25" as="geometry" />
        </mxCell>
        <mxCell id="EeNdOKzcwhcuOEyCvBdM-102" value="" style="shape=datastore;whiteSpace=wrap;html=1;" vertex="1" parent="1">
          <mxGeometry x="610" y="992" width="60" height="60" as="geometry" />
        </mxCell>
        <mxCell id="EeNdOKzcwhcuOEyCvBdM-103" value="" style="endArrow=classic;html=1;rounded=0;entryX=0;entryY=0.5;entryDx=0;entryDy=0;" edge="1" parent="1" target="EeNdOKzcwhcuOEyCvBdM-102">
          <mxGeometry width="50" height="50" relative="1" as="geometry">
            <mxPoint x="280" y="1022" as="sourcePoint" />
            <mxPoint x="330" y="972" as="targetPoint" />
          </mxGeometry>
        </mxCell>
        <mxCell id="EeNdOKzcwhcuOEyCvBdM-104" value="guardarPais()" style="text;html=1;align=center;verticalAlign=middle;resizable=0;points=[];autosize=1;strokeColor=none;fillColor=none;" vertex="1" parent="1">
          <mxGeometry x="300" y="997" width="100" height="30" as="geometry" />
        </mxCell>
        <mxCell id="EeNdOKzcwhcuOEyCvBdM-105" value="" style="shape=datastore;whiteSpace=wrap;html=1;" vertex="1" parent="1">
          <mxGeometry x="610" y="1060" width="60" height="60" as="geometry" />
        </mxCell>
        <mxCell id="EeNdOKzcwhcuOEyCvBdM-106" style="edgeStyle=elbowEdgeStyle;rounded=0;orthogonalLoop=1;jettySize=auto;html=1;elbow=vertical;curved=0;" edge="1" parent="1">
          <mxGeometry relative="1" as="geometry">
            <mxPoint x="280" y="1084" as="sourcePoint" />
            <mxPoint x="610" y="1084" as="targetPoint" />
          </mxGeometry>
        </mxCell>
        <mxCell id="EeNdOKzcwhcuOEyCvBdM-107" style="edgeStyle=elbowEdgeStyle;rounded=0;orthogonalLoop=1;jettySize=auto;html=1;elbow=vertical;curved=0;dashed=1;exitX=0;exitY=0.5;exitDx=0;exitDy=0;" edge="1" parent="1">
          <mxGeometry relative="1" as="geometry">
            <mxPoint x="610" y="1100" as="sourcePoint" />
            <mxPoint x="280" y="1100" as="targetPoint" />
            <Array as="points">
              <mxPoint x="365" y="1100" />
            </Array>
          </mxGeometry>
        </mxCell>
        <mxCell id="EeNdOKzcwhcuOEyCvBdM-108" value="buscarPais(nombre)" style="text;html=1;align=center;verticalAlign=middle;resizable=0;points=[];autosize=1;strokeColor=none;fillColor=none;" vertex="1" parent="1">
          <mxGeometry x="305" y="1058" width="130" height="30" as="geometry" />
        </mxCell>
        <mxCell id="EeNdOKzcwhcuOEyCvBdM-109" value="ObjPais" style="text;html=1;align=center;verticalAlign=middle;resizable=0;points=[];autosize=1;strokeColor=none;fillColor=none;" vertex="1" parent="1">
          <mxGeometry x="400" y="1090" width="70" height="30" as="geometry" />
        </mxCell>
        <mxCell id="EeNdOKzcwhcuOEyCvBdM-110" style="edgeStyle=elbowEdgeStyle;rounded=0;orthogonalLoop=1;jettySize=auto;html=1;elbow=vertical;curved=0;" edge="1" parent="1">
          <mxGeometry relative="1" as="geometry">
            <mxPoint x="275" y="1133" as="sourcePoint" />
            <mxPoint x="419.5" y="1133" as="targetPoint" />
          </mxGeometry>
        </mxCell>
        <mxCell id="EeNdOKzcwhcuOEyCvBdM-111" value="setEliminado()" style="text;html=1;align=center;verticalAlign=middle;resizable=0;points=[];autosize=1;strokeColor=none;fillColor=none;" vertex="1" parent="1">
          <mxGeometry x="300" y="1110" width="100" height="30" as="geometry" />
        </mxCell>
        <mxCell id="EeNdOKzcwhcuOEyCvBdM-112" value="Pais" style="rounded=0;whiteSpace=wrap;html=1;" vertex="1" parent="1">
          <mxGeometry x="420" y="1125" width="50" height="25" as="geometry" />
        </mxCell>
        <mxCell id="EeNdOKzcwhcuOEyCvBdM-113" value="" style="shape=datastore;whiteSpace=wrap;html=1;" vertex="1" parent="1">
          <mxGeometry x="610" y="1150" width="60" height="60" as="geometry" />
        </mxCell>
        <mxCell id="EeNdOKzcwhcuOEyCvBdM-114" value="" style="endArrow=classic;html=1;rounded=0;entryX=0;entryY=0.5;entryDx=0;entryDy=0;" edge="1" parent="1" target="EeNdOKzcwhcuOEyCvBdM-113">
          <mxGeometry width="50" height="50" relative="1" as="geometry">
            <mxPoint x="280" y="1180" as="sourcePoint" />
            <mxPoint x="330" y="1130" as="targetPoint" />
          </mxGeometry>
        </mxCell>
        <mxCell id="EeNdOKzcwhcuOEyCvBdM-115" value="guardarPais()" style="text;html=1;align=center;verticalAlign=middle;resizable=0;points=[];autosize=1;strokeColor=none;fillColor=none;" vertex="1" parent="1">
          <mxGeometry x="300" y="1155" width="100" height="30" as="geometry" />
        </mxCell>
      </root>
    </mxGraphModel>
  </diagram>
</mxfile>
